<?xml version="1.0" encoding="UTF-8"?>
<svg id="Ebene_1" data-name="Ebene 1" xmlns="http://www.w3.org/2000/svg" xmlns:xlink="http://www.w3.org/1999/xlink" viewBox="0 0 200 200">
  <defs>
    <style>
      .cls-1 {
        fill: #b02a3a;
      }

      .cls-2 {
        fill: url(#Unbenannter_Verlauf_134);
        opacity: .72;
      }

      .cls-3 {
        fill: #fff;
      }

      .cls-4 {
        fill: url(#Unbenannter_Verlauf_10);
      }
    </style>
    <linearGradient id="Unbenannter_Verlauf_10" data-name="Unbenannter Verlauf 10" x1="65.15" y1="40.32" x2="142.12" y2="157.28" gradientUnits="userSpaceOnUse">
      <stop offset="0" stop-color="#ffc341"/>
      <stop offset=".49" stop-color="#e6a922"/>
      <stop offset="1" stop-color="#b9711e"/>
    </linearGradient>
    <linearGradient id="Unbenannter_Verlauf_134" data-name="Unbenannter Verlauf 134" x1="112.98" y1="51.11" x2="112.98" y2="94.55" gradientUnits="userSpaceOnUse">
      <stop offset="0" stop-color="#fff"/>
      <stop offset=".1" stop-color="#fdfbfc" stop-opacity=".99"/>
      <stop offset=".2" stop-color="#f9f2f3" stop-opacity=".97"/>
      <stop offset=".31" stop-color="#f3e3e6" stop-opacity=".93"/>
      <stop offset=".42" stop-color="#e9cdd2" stop-opacity=".87"/>
      <stop offset=".53" stop-color="#ddb1b9" stop-opacity=".8"/>
      <stop offset=".64" stop-color="#cf8f9b" stop-opacity=".71"/>
      <stop offset=".65" stop-color="#ce8d99" stop-opacity=".7"/>
      <stop offset=".71" stop-color="#dbabb4" stop-opacity=".78"/>
      <stop offset=".8" stop-color="#eacfd4" stop-opacity=".88"/>
      <stop offset=".88" stop-color="#f5e9eb" stop-opacity=".94"/>
      <stop offset=".94" stop-color="#fcf9f9" stop-opacity=".98"/>
      <stop offset=".98" stop-color="#fff"/>
    </linearGradient>
  </defs>
  <g>
    <g>
      <g>
        <path d="M181.91,66.34c.63.43.91.66,1.99,1.49,1.09-2.66,2.83-5.33,4.51-7.88.38-.58,1.08-.92,1.62.06.84,1.12,4.22,13.08,4,15-.02.18-.1.72-.77,1.07-2.57,1.22-5.86.54-8.26-1.07-2.48-1.66-4.31-6.15-4.52-7.38s.76-1.72,1.42-1.28Z"/>
        <path d="M167.3,98.3c5.36.64,10.51-2.2,13.75-6.68,3.77-4.94,5.32-11.98,6.19-18.14.25-2.42,3.79-2.29,3.81.16.25,11.23-2.02,23.94-12.18,30.71-3.13,2.1-6.77,3.44-10.53,3.83-7.93,1.38-8.93-9.96-1.05-9.88h0Z"/>
      </g>
      <circle class="cls-4" cx="102.54" cy="97.13" r="70"/>
      <path class="cls-3" d="M68.76,89.91c0-23.13,19.8-41.89,44.22-41.89s44.22,18.75,44.22,41.89c0,9.04-88.44,9.04-88.44,0Z"/>
      <path class="cls-2" d="M71.3,88.42c0-21.17,18.66-38.33,41.68-38.33s41.68,17.16,41.68,38.33c0,8.27-83.37,8.27-83.37,0Z"/>
      <g>
        <path d="M50.69,102.11c8.48,18.18,24.53,36.7,46.04,36.89,6.1.06,12.31-1.32,17.97-3.69,0,0,2.48-1.03,2.48-1.03l.13-.05c.92-.38,1.98.06,2.37.98.36.88-.02,1.89-.86,2.31,0,0-2.55,1.28-2.55,1.28-2.56,1.29-5.21,2.39-7.97,3.23-28.46,9.54-53.84-11.96-66.69-35.73-2.88-6.23,6.17-10.45,9.08-4.2h0Z"/>
        <path d="M122.33,119.05c.17,1.11.19,1.64.38,3.64,3.96-1.47,8.58-2.26,13.02-3,1-.17,2.08.25,1.56,1.81-.37,2.02-9.92,17.62-12.21,19.3-.22.16-.88.61-1.92.24-3.89-1.57-6.44-5.79-7.09-9.99-.68-4.34,2.34-10.79,3.47-12.25s2.62-.9,2.8.26Z"/>
      </g>
      <g>
        <path d="M105.31,20.5c.16-1.8,3.97-2.93,8.52-2.52s8.1,2.19,7.94,3.99c-.06.7-16.52-.76-16.46-1.47Z"/>
        <path d="M109.19,27.63l2.35-8.08c.34-1.17,1.56-1.84,2.72-1.5.93.27,1.55,1.11,1.58,2.04l.29,8.41c-.14,5.45-8.15,4.45-6.95-.87h0Z"/>
      </g>
      <g>
        <path d="M93.89,154.1c5.85,2.41,9.23,8.46,8.14,14.68-.53,3.9-2.42,7.57-4.5,10.83,0,0-2.15,3.09-2.15,3.09-1.29,1.8-4.06.05-2.98-1.89,2.25-3.81,4.64-8.04,4.89-12.53.39-3.9-1.79-7.29-5.33-8.51-3.71-1.36-1.86-6.86,1.93-5.68h0Z"/>
        <path d="M102.98,181.13c-1.86-1.23-4-2.07-6.19-2.43-.19-.03-.38-.03-.56,0-.33-.19-.73-.26-1.09-.12-.68.25-1.31.57-1.92.93-.17.3-.39.72-.67,1.1-.32.44-.47.76-.81,1.39-.93,1.95-.48,2.3.11,2.62,2.15,1.18,4.51,1.98,6.92,2.44,1.24.23,6.71.8,7.39-.26,1.03-1.6-1.66-4.66-3.17-5.65Z"/>
      </g>
      <g>
        <path d="M127.67,151.65c5.85,2.41,9.23,8.46,8.14,14.68-.53,3.9-2.42,7.57-4.5,10.83,0,0-2.15,3.09-2.15,3.09-1.29,1.8-4.06.05-2.98-1.89,2.25-3.81,4.64-8.04,4.89-12.53.39-3.9-1.79-7.29-5.33-8.51-3.71-1.36-1.86-6.86,1.93-5.68h0Z"/>
        <path d="M136.76,178.69c-1.86-1.23-4-2.07-6.19-2.43-.19-.03-.38-.03-.56,0-.33-.19-.73-.26-1.09-.12-.68.25-1.31.57-1.92.93-.17.3-.39.72-.67,1.1-.32.44-.47.76-.81,1.39-.93,1.95-.48,2.3.11,2.62,2.15,1.18,4.51,1.98,6.92,2.44,1.24.23,6.71.8,7.39-.26,1.03-1.6-1.66-4.66-3.17-5.65Z"/>
      </g>
    </g>
    <g>
      <path d="M109.65,73.21c-.73-.35-1.47-.7-2.2-1.05-.81-.39-1.61-.81-2.51-.93-.81-.11-1.64-.07-2.46-.07-.84,0-1.68,0-2.53,0-.92,0-1.79.8-1.75,1.75.04.95.77,1.75,1.75,1.75,1.49,0,2.99-.02,4.48.02.08.02.16.04.24.06.05.02.23.09.27.1.27.12.54.25.81.38.71.34,1.42.68,2.13,1.01.82.39,1.93.26,2.39-.63.41-.78.25-1.97-.63-2.39Z"/>
      <path d="M121.78,73.24c.64-.34,1.28-.67,1.92-1.01.7-.37,1.4-.77,2.18-.89.71-.1,1.43-.07,2.14-.07.73,0,1.47,0,2.2,0,.8,0,1.56.77,1.52,1.68-.04.91-.67,1.68-1.52,1.68-1.3,0-2.6-.02-3.9.01-.07.02-.14.04-.21.06-.05.02-.2.08-.23.09-.24.12-.47.24-.71.37-.62.32-1.23.65-1.85.97-.72.38-1.68.24-2.09-.6-.36-.75-.22-1.89.55-2.29Z"/>
    </g>
  </g>
  <g>
    <g>
      <path class="cls-1" d="M84.59,76.93c.68.29,1.35.64,1.97,1.04.3.19.6.4.89.62.02.02.14.11.03.02.03.03.07.05.1.08.07.05.14.11.2.17.15.13.3.26.45.39.29.26.78.31,1.06,0,.26-.29.31-.78,0-1.06-1.17-1.06-2.5-1.93-3.95-2.55-.19-.08-.37-.13-.58-.08-.17.05-.36.18-.45.34-.17.32-.12.86.27,1.03h0Z"/>
      <path class="cls-1" d="M88.1,76.29c.18.05.35.11.52.18.08.03.16.06.24.09.03.01.17.07.03.01.04.02.08.03.12.05.34.15.67.32.98.51s.6.39.89.6c.1.07-.13-.11.03.02.03.03.07.05.1.08.07.05.13.11.2.17.15.13.29.26.43.4.28.27.78.3,1.06,0s.3-.77,0-1.06c-1.19-1.15-2.63-2.01-4.22-2.5-.37-.12-.83.14-.92.52-.09.41.12.8.52.92h0Z"/>
      <path class="cls-1" d="M92.19,75.62c.15.05.3.1.45.16.04.02.09.03.13.05.1.04,0-.02-.02-.01.05,0,.16.07.21.09.3.14.59.29.87.46.14.08.27.17.4.26.06.04.12.09.18.13.03.02.06.04.09.07.15.11-.08-.07,0,0,.25.21.5.42.73.66.28.28.79.3,1.06,0s.3-.76,0-1.06c-1.03-1.04-2.3-1.81-3.7-2.25-.37-.12-.84.14-.92.52-.09.41.12.79.52.92h0Z"/>
    </g>
    <g>
      <path class="cls-1" d="M145.03,75.63c-1.45.62-2.78,1.49-3.95,2.55-.29.26-.29.8,0,1.06.31.29.75.28,1.06,0,.14-.12.28-.25.42-.37.07-.06.13-.11.2-.17.04-.03.09-.07.13-.1-.06.05-.05.04,0,0,.3-.22.6-.44.92-.64.63-.4,1.29-.75,1.97-1.04.36-.15.47-.72.27-1.03-.24-.38-.64-.43-1.03-.27h0Z"/>
      <path class="cls-1" d="M141.87,74.85c-1.58.49-3.03,1.34-4.22,2.5-.28.27-.3.79,0,1.06s.76.29,1.06,0c.13-.13.27-.25.41-.38.07-.06.13-.11.2-.17.04-.03.08-.07.13-.1.05-.04.06-.05,0,0,.3-.22.6-.43.92-.62s.63-.35.95-.5c.05-.02.1-.04.15-.07-.07.03-.06.03,0,0,.08-.03.16-.06.24-.09.18-.07.37-.13.56-.19.37-.12.65-.53.52-.92s-.52-.65-.92-.52h0Z"/>
      <path class="cls-1" d="M137.78,74.18c-1.39.45-2.66,1.22-3.7,2.25-.28.28-.3.79,0,1.06s.76.3,1.06,0c.22-.23.46-.44.71-.64.11-.09-.07.05,0,0,.03-.02.06-.05.09-.07.06-.04.12-.09.18-.13.14-.1.28-.19.42-.28.27-.17.55-.32.84-.45.07-.03.14-.06.2-.09.09-.04-.13.05,0,0,.03-.01.07-.03.1-.04.16-.06.32-.12.48-.17.37-.12.65-.53.52-.92-.12-.37-.52-.65-.92-.52h0Z"/>
    </g>
  </g>
</svg>